<svg xmlns="http://www.w3.org/2000/svg" viewBox="0 0 144 144"><path fill="white" stroke="#fff" stroke-linecap="round" stroke-linejoin="round" stroke-width="6" d="M34.426 36.327c6.347-5.596 26.226-4.954 26.334-.753.058 2.239 2.466 4.115 1.806 6.47-.26.926 3.585 4.2 4.514 6.02 1.09 2.134 4.646.855 6.772 2.408 1.778 1.299.374-1.892 5.718-3.311 24.432-6.488 7.26-21.505 7.975-26.936.654-4.967 3.911-6.826 5.117-7.373 2.147-.975-2.022-2.434 2.859-6.47 2.31-1.912-.881 3.737-2.709 8.577-1.155 1.83 4.755-4.704 5.116-3.311.293 1.128-.666 2.425.15 3.01.595.425 1.676-1.192 2.107-.602.284.387.332 2.411-.15 3.46-.46 1-3.495 2.092-2.408 2.258 6.036.922 8.706 5.697 11.738 9.48 2.799 3.492 6.779 5.648 7.825 9.932 1.636 6.701-2.555-.933.15 23.926.396 3.635-6.668 9.152-10.232 7.975-3.454-1.14-2.28-2.035-4.816-1.204-3.189 1.046-.686 6.595-4.364 10.534-15.41 16.505-31.498 37.293-41.381 55.978-2.182 4.125-26.298-3.085-21.218-8.878 10.123-11.544-2.309-14.285-9.18-37.921-2.1-7.229 3.067-14.902 2.71-22.421-.235-4.924-5.773-12.199-2.408-15.8 2.415-2.586.575-6.716 3.16-7.825 6.95-2.982 2.65-5.315 4.815-7.223z"/></svg>