<?xml version="1.0" encoding="UTF-8"?>
<!-- Generated by Pixelmator Pro 3.3 -->
<svg width="1212" height="1467" viewBox="0 0 1212 1467" xmlns="http://www.w3.org/2000/svg" xmlns:xlink="http://www.w3.org/1999/xlink">
    <path id="Path" fill="#4ea4bd" fill-rule="evenodd" stroke="#4ea4bd" stroke-width="4" stroke-linecap="round" stroke-linejoin="round" d="M 4.428 1463.359985 L 13.92 1448.501953 L 18.152 1433.772949 L 13.75 1409.902954 L 11.889 1390.095947 L 14.258 1381.463013 L 30.51 1364.192993 L 48.455002 1332.366943 L 58.612999 1315.099976 L 68.769997 1300.370972 L 79.943001 1286.490967 L 86.714996 1274.470947 L 89.253998 1264.142944 L 97.719002 1252.970947 L 106.353996 1248.567993 L 109.737999 1244.33606 L 112.278 1238.241943 L 119.047997 1219.281982 L 127.514 1206.416016 L 136.147995 1197.781006 L 142.074005 1185.590942 L 147.998001 1176.958984 L 154.770004 1169.171997 L 158.324005 1167.479004 L 183.210999 1152.75 L 193.369003 1143.099976 L 197.602005 1140.560059 L 223.501999 1141.238037 L 230.442993 1143.777954 L 234.843002 1147.161987 L 234.843002 1150.54895 L 233.998001 1152.241943 L 222.824005 1154.952026 L 222.824005 1156.641968 L 220.285004 1168.66394 L 216.052994 1180.682007 L 215.376999 1187.623047 L 217.067993 1188.470947 L 220.455002 1187.623047 L 225.533005 1178.142944 L 226.380997 1178.98999 L 224.009995 1192.703003 L 225.703003 1196.088013 L 227.395996 1195.241943 L 236.876999 1184.91394 L 242.800995 1180.514038 L 244.494003 1177.126953 L 247.880997 1162.397949 L 248.557007 1156.474976 L 254.651993 1149.532959 L 255.328003 1134.126953 L 257.020996 1132.265991 L 258.714996 1132.265991 L 260.575989 1134.805054 L 261.424011 1139.207031 L 263.963013 1141.746948 L 275.304993 1144.11499 L 277.843994 1144.963013 L 282.075989 1143.27002 L 288.171997 1137.17395 L 291.557007 1132.095947 L 291.557007 1128.541016 L 283.600006 1119.230957 L 281.059998 1110.595947 L 281.906006 1108.05603 L 284.446991 1106.363037 L 287.832001 1107.21106 L 293.928009 1113.13501 L 299.175995 1115.675049 L 301.714996 1117.366943 L 302.561005 1119.061035 L 300.020996 1124.30896 L 300.020996 1126.848022 L 301.88501 1128.541016 L 309.671997 1132.772949 L 314.75 1134.467041 L 318.304993 1133.45105 L 324.230011 1129.218994 L 325.921997 1118.890991 L 328.462006 1115.33606 L 331.002014 1114.48999 L 333.540985 1114.48999 L 336.928009 1110.258057 L 339.46701 1102.470947 L 347.253998 1097.223022 L 358.257996 1086.89502 L 367.738007 1079.954956 L 371.971008 1076.400024 L 373.664001 1069.458984 L 378.742004 1063.532959 L 383.144989 1060.823975 L 396.855011 1061.671997 L 400.410004 1063.363037 L 401.257996 1066.75 L 405.65799 1072.676025 L 405.65799 1074.366943 L 398.717987 1073.69104 L 387.545013 1072.843994 L 383.144989 1071.998047 L 380.604004 1074.537964 L 379.757996 1078.938965 L 376.372986 1085.032959 L 376.372986 1088.417969 L 377.389008 1090.110962 L 379.928009 1087.572021 L 383.312988 1084.863037 L 386.699005 1084.017944 L 388.393005 1084.017944 L 391.945007 1086.557007 L 404.812988 1088.079956 L 409.214996 1091.636963 L 422.25 1114.657959 L 427.497986 1124.81604 L 434.608002 1141.067993 L 442.395996 1157.319946 L 451.196991 1175.43396 L 456.446991 1176.110962 L 459.832001 1177.805054 L 470.328003 1188.979004 L 486.75 1193.886963 L 492.843994 1196.427002 L 499.785004 1204.214966 L 527.379028 1221.98999 L 543.971008 1236.379028 L 551.757996 1243.150024 L 552.604004 1246.536987 L 548.370972 1252.630981 L 546.679993 1257.879028 L 546.679993 1263.805054 L 548.541016 1275.824951 L 548.710999 1286.150024 L 541.091003 1300.879028 L 533.474976 1316.285034 L 529.242004 1329.319946 L 527.549011 1335.245972 L 526.703003 1344.724976 L 524.33197 1355.052979 L 523.486023 1366.227051 L 521.116028 1383.323975 L 515.190979 1396.359009 L 510.110992 1414.473022 L 499.954987 1429.879028 L 495.722992 1440.204956 L 483 1463.359985 L 4.428 1463.359985 Z M 555.14502 1238.917969 L 547.35498 1232.145996 L 536.859009 1223.514038 L 523.994019 1213.35498 L 517.900024 1206.583984 L 510.790009 1197.104004 L 509.942993 1190.332031 L 507.403015 1186.099976 L 502.153992 1190.332031 L 497.921997 1191.348022 L 484.040985 1183.72998 L 469.312988 1177.805054 L 463.218994 1174.417969 L 459.832001 1170.187988 L 454.584015 1157.319946 L 452.722992 1152.241943 L 452.722992 1142.761963 L 454.415985 1134.974976 L 455.261993 1132.43396 L 455.09201 1123.801025 L 451.536987 1105.85498 L 450.520996 1088.588013 L 451.196991 1071.48999 L 452.045013 1067.936035 L 440.703003 1053.545044 L 436.471008 1049.312012 L 426.821014 1044.234009 L 421.742004 1037.292969 L 421.571991 1030.520996 L 422.417999 1023.580994 L 430.882996 1010.715027 L 433.421997 1007.159973 L 433.421997 992.599976 L 436.80899 985.659973 L 438.332001 979.734009 L 440.024994 975.33197 L 441.718994 972.79303 L 446.96701 969.237976 L 450.35199 964.159973 L 453.738007 956.370972 L 457.971008 944.351013 L 461.355011 934.870972 L 467.281006 920.991028 L 468.804993 914.049011 L 473.88501 900.335999 L 474.730011 893.395996 L 477.269989 883.916016 L 479.639008 874.606018 L 480.485992 871.895996 L 495.045013 854.629028 L 498.432007 847.687012 L 500.971008 833.974976 L 501.645996 829.742004 L 503.51001 827.03302 L 508.588013 826.187012 L 512.820007 825.340027 L 517.900024 814.846008 L 522.130005 802.823975 L 527.210022 795.883972 L 530.596008 788.265991 L 528.903992 781.323975 L 535.676025 776.924011 L 541.77002 772.690979 L 546.848022 766.598022 L 547.692993 758.807983 L 550.234009 753.72998 L 552.773987 751.020996 L 557.85199 751.020996 L 560.560974 752.715027 L 562.254028 756.947021 L 566.653992 763.041016 L 576.981995 762.872986 L 578.676025 759.486023 L 579.35199 751.698975 L 577.65802 743.064026 L 576.643005 731.044006 L 579.182007 724.273987 L 580.875 713.947021 L 584.262024 704.46698 L 587.645996 703.450989 L 594.41803 703.450989 L 597.974976 701.757996 L 602.20697 694.815979 L 605.59198 682.796021 L 607.11499 667.223022 L 604.406006 656.049011 L 605.083984 639.796997 L 606.776978 627.776978 L 610.164001 614.742004 L 605.762024 613.051025 L 604.914001 610.51001 L 617.781006 602.723022 L 621.16803 602.723022 L 625.567993 606.955017 L 631.492004 606.109009 L 633.185974 604.245972 L 627.939026 596.629028 L 627.939026 585.455017 L 626.921997 576.822021 L 626.921997 567.34198 L 629.29303 554.474976 L 630.986023 545.84198 L 637.080017 542.455017 L 636.064026 538.054993 L 631.83197 535.515015 L 631.83197 532.129028 L 633.35498 528.742004 L 638.604004 523.494019 L 646.223022 519.939026 L 654.01001 518.245972 L 654.85498 519.939026 L 654.179993 529.419006 L 652.486023 533.651978 L 654.179993 535.346008 L 666.197021 535.176025 L 680.080017 537.715027 L 686.005981 539.40802 L 690.406006 542.794983 L 696.502014 550.411987 L 702.596008 560.737976 L 707.843994 563.278015 L 713.77002 564.125 L 718.002014 560.570007 L 718.002014 550.242004 L 717.83197 535.684021 L 715.971008 527.051025 L 715.122986 518.416016 L 717.663025 511.64502 L 721.049011 505.551025 L 726.974976 499.454956 L 731.20697 495.223022 L 734.76001 494.207031 L 738.992004 494.207031 L 743.39502 496.747009 L 746.781006 495.900024 L 748.473022 490.651978 L 750.166016 485.573975 L 753.552979 483.710999 L 760.494019 484.55896 L 765.572021 482.86499 L 769.804993 481.004028 L 781.994995 485.234009 L 783.684998 485.234009 L 784.53302 483.542969 L 784.362976 467.967041 L 782.502014 456.795044 L 782.502014 448.329956 L 781.484009 441.389038 L 777.929993 428.522949 L 783.007996 416.50293 L 783.85498 408.714966 L 785.549011 396.695068 L 787.91803 389.754028 L 793.166016 383.660034 L 794.689026 363.008057 L 796.382996 359.620972 L 801.463013 357.082031 L 807.557007 356.06604 L 810.940979 356.911987 L 817.036987 358.60498 L 818.729004 361.991943 L 820.421997 362.838013 L 826.518005 366.223022 L 832.611023 367.070068 L 837.689026 367.916016 L 841.075989 366.054932 L 841.921997 364.360962 L 841.921997 360.974976 L 839.382019 354.880981 L 838.367004 348.109009 L 841.583984 329.995972 L 844.122986 312.726074 L 844.968994 306.802979 L 845.645996 292.920044 L 848.185974 286.995972 L 854.111023 282.593994 L 859.359009 281.748047 L 862.744019 284.287964 L 865.284973 286.825928 L 866.301025 294.442993 L 871.549011 302.233032 L 875.781006 304.770996 L 880.18103 305.616943 L 888.815979 302.062012 L 893.046021 300.369019 L 895.588013 300.198975 L 902.528015 302.73999 L 904.221008 302.73999 L 905.914001 299.354004 L 906.59198 287.333984 L 910.992004 281.23999 L 914.379028 277.68396 L 919.45697 277.68396 L 926.39801 285.302979 L 932.492004 286.147949 L 936.724976 284.454956 L 940.111023 280.054932 L 943.666016 279.207031 L 947.052979 280.054932 L 953.145996 282.593994 L 962.627014 284.963989 L 967.705017 288.52002 L 980.065002 312.389038 L 980.065002 320.176025 L 964.828003 341.845947 L 963.13501 347.770996 L 963.302979 358.098022 L 964.995972 366.731934 L 968.551025 370.964966 L 976.340027 375.195068 L 978.031006 379.427979 L 977.35498 384.676025 L 975.661987 387.214966 L 963.642029 392.463013 L 961.948975 395.171997 L 961.948975 400.25 L 964.489014 403.636963 L 967.197021 408.714966 L 970.583984 410.407959 L 971.599976 413.118042 L 966.520996 422.598022 L 967.367004 428.522949 L 965.674011 432.922974 L 963.133972 432.922974 L 959.580017 431.22998 L 954.5 430.38501 L 951.11499 431.22998 L 950.27002 439.02002 L 940.789978 439.187988 L 937.231995 433.093994 L 933.677979 417.687988 L 931.984009 413.454956 L 923.35199 410.070068 L 916.409973 406.68396 L 912.007996 400.758057 L 906.76001 399.06604 L 905.067993 399.911987 L 897.448975 406.854004 L 895.755981 405.160034 L 890.340027 390.602051 L 886.953003 387.214966 L 884.245972 376.042969 L 880.859009 373.50293 L 877.304993 376.889038 L 875.611023 381.291016 L 876.627014 384.676025 L 882.723022 390.602051 L 886.953003 397.542969 L 889.663025 406.008057 L 888.815979 408.714966 L 894.064026 416.333984 L 901.174011 434.279053 L 901.174011 438.678955 L 898.633972 439.526978 L 893.387024 440.373047 L 891.692993 443.082031 L 891.862976 451.546997 L 892.708984 454.085999 L 892.708984 459.333984 L 893.72699 467.120972 L 896.434021 476.43103 L 893.046997 485.911987 L 889.83197 506.56604 L 887.29303 516.893005 L 889.153992 527.218994 L 891.69397 537.546997 L 893.557007 547.872986 L 902.189026 552.10498 L 902.189026 557.184021 L 910.823975 561.416016 L 908.453979 570.895996 L 901.682007 578.684021 L 895.588013 581.393005 L 886.953003 584.776978 L 883.567993 580.544983 L 880.013977 574.620972 L 860.034973 545.502014 L 854.789001 542.961975 L 849.710999 544.825989 L 844.460999 547.366028 L 841.921021 552.612976 L 843.784973 562.939026 L 840.39801 568.018005 L 841.245972 572.419983 L 843.953003 577.497986 L 848.35498 584.27002 L 850.89502 591.210022 L 851.065002 599.846008 L 853.604004 601.539001 L 867.486023 607.29303 L 873.409973 607.29303 L 876.965027 610.679993 L 876.119019 612.372986 L 883.060974 618.46698 L 884.752014 621.005981 L 885.599976 626.085999 L 888.309021 633.872986 L 888.309021 637.257996 L 883.229004 647.585999 L 883.398987 658.757996 L 888.645996 660.450989 L 888.645996 674.164001 L 884.245972 666.544006 L 878.320007 667.393005 L 877.473022 676.872986 L 874.088013 680.427979 L 871.547974 689.90802 L 867.315979 691.60199 L 865.622986 689.90802 L 863.762024 682.96698 L 860.375 678.734009 L 853.434021 674.502014 L 848.185974 667.72998 L 844.630981 663.497986 L 839.552979 662.651978 L 831.765991 663.497986 L 827.53302 668.745972 L 824.994019 672.132996 L 824.145996 676.53302 L 824.145996 679.919983 L 827.700989 686.861023 L 832.104004 691.093994 L 839.721008 691.77002 L 841.583984 693.463013 L 843.276978 704.637024 L 845.138977 705.481995 L 850.21698 704.637024 L 851.064026 706.328003 L 848.525024 714.963013 L 850.387024 728.676025 L 850.387024 730.369019 L 844.460999 731.38501 L 836.674011 739.171997 L 834.97998 739.171997 L 834.13501 738.325989 L 833.289001 730.536987 L 831.426025 727.151978 L 828.885986 724.612976 L 828.041016 721.22699 L 827.02301 714.284973 L 826.177979 713.439026 L 822.79303 712.593994 L 815.85199 710.052979 L 808.909973 709.20697 L 801.968994 708.528992 L 797.736023 711.916016 L 795.197021 715.471008 L 793.674011 728.338013 L 792.828003 741.203003 L 792.150024 750.682983 L 792.997986 761.01001 L 791.304993 766.090027 L 786.22699 774.723022 L 783.685974 781.664001 L 782.161987 792.838013 L 779.622986 800.625 L 776.236023 817.044983 L 769.465027 821.276978 L 754.060974 828.388977 L 746.27301 835.328979 L 736.11499 854.289001 L 729.513977 872.403992 L 720.879028 886.11499 L 716.815979 899.151978 L 713.262024 903.38501 L 711.906006 928.439026 L 712.921997 943.843994 L 717.153992 951.463013 L 727.650024 959.927979 L 732.89801 962.46698 L 733.745972 965.176025 L 735.437988 972.79303 L 735.607971 978.041016 L 734.76001 983.96698 L 727.820007 988.367004 L 711.567993 996.156982 L 698.700989 1005.804993 L 686.005981 1019.687988 L 680.080017 1028.319946 L 678.387024 1035.939941 L 681.940979 1046.265991 L 685.328003 1053.207031 L 694.97699 1062.516968 L 694.130981 1075.383057 L 695.992004 1081.30896 L 695.992004 1086.557007 L 694.301025 1089.095947 L 686.510986 1093.498047 L 675.340027 1097.052979 L 671.955017 1098.745972 L 664.335022 1108.225952 L 660.104004 1111.781006 L 648.929993 1116.18396 L 645.375 1118.723022 L 636.909973 1125.662964 L 622.35199 1134.467041 L 618.119019 1137.005981 L 611.177979 1143.099976 L 606.945007 1151.734009 L 602.713013 1166.292969 L 599.497986 1177.467041 L 596.95697 1193.041016 L 594.41803 1204.214966 L 591.877991 1205.906006 L 585.953003 1207.77002 L 580.705017 1211.154053 L 575.627014 1217.25 L 566.994019 1221.650024 L 563.606995 1225.883057 L 563.776978 1232.823975 L 557.684021 1238.917969 L 555.143982 1238.917969 Z M 497.415985 730.028992 L 495.722992 728.338013 L 493.183014 726.64502 L 493.013 722.411987 L 494.707001 720.551025 L 504.187012 720.551025 L 505.03299 721.395996 L 503.51001 726.64502 L 499.954987 729.184021 L 497.415985 730.028992 Z M 542.616028 667.72998 L 539.060974 665.190979 L 539.060974 659.265991 L 544.986023 656.559021 L 547.526001 657.403992 L 550.234009 659.94397 L 548.541016 666.036987 L 545.153992 667.72998 L 542.61499 667.72998 Z M 511.466003 556.338013 L 509.77301 555.48999 L 481.162994 536.869995 L 459.493988 525.02002 L 449.167999 521.632996 L 448.320007 514.861023 L 446.459015 507.920044 L 448.149994 498.440002 L 447.981995 492.514038 L 447.13501 484.72699 L 447.981995 482.187012 L 453.906006 479.479004 L 461.696014 470.846008 L 465.079987 471.69104 L 466.77301 473.38501 L 466.942993 478.463013 L 470.328003 482.018005 L 475.575989 481.004028 L 482.347992 476.60199 L 487.428009 470.676025 L 489.118988 463.734009 L 491.660004 458.485962 L 495.893005 455.10199 L 498.600006 455.10199 L 501.139008 455.947021 L 501.985992 459.333984 L 501.985992 465.427979 L 498.769989 476.60199 L 500.463013 481.679993 L 502.324005 491.160034 L 504.018005 494.546997 L 504.018005 501.487 L 503.339996 510.967041 L 500.799988 528.911987 L 500.122986 534.159973 L 501.81601 537.546997 L 504.355988 540.085999 L 505.371002 542.625 L 512.312988 554.64502 L 511.46701 556.338013 Z M 600.005981 547.872986 L 597.466003 545.333984 L 596.450989 540.932007 L 600.851013 538.392029 L 602.544983 539.237976 L 605.083984 540.085999 L 606.945007 542.625 L 606.099976 544.317993 L 604.406006 547.028015 L 600.005981 547.872986 Z M 607.622986 530.60498 L 605.083984 528.911987 L 603.223022 523.833984 L 604.067993 521.125 L 607.622986 520.278992 L 612.703003 521.971008 L 612.703003 523.664001 L 611.85498 527.051025 L 610.164978 530.60498 L 607.622986 530.60498 Z M 1069.279053 279.714966 L 1067.417969 272.942993 L 1068.264038 266.00293 L 1064.708984 255.676025 L 1063.015991 250.598022 L 1060.30896 249.751953 L 1058.61499 248.05896 L 1054.213013 243.82605 L 1049.13501 241.286987 L 1044.732056 236.207031 L 1039.484009 231.977051 L 1035.930054 221.647949 L 1034.235962 215.554932 L 1032.545044 214.708984 L 1028.142944 209.629028 L 1029.83606 207.088989 L 1036.776978 210.477051 L 1040.161987 210.307007 L 1043.54895 204.380981 L 1045.23999 205.229004 L 1047.949951 215.554932 L 1056.751953 226.55896 L 1059.46106 239.42395 L 1061.154053 240.270996 L 1064.53894 244.504028 L 1071.47998 251.44397 L 1073.343994 255.676025 L 1075.204956 266.004028 L 1076.051025 272.775024 L 1073.510986 278.869019 L 1071.817993 279.714966 L 1069.279053 279.714966 Z M 1005.45697 270.06604 L 1001.224976 267.526978 L 995.97699 264.988037 L 993.267029 260.755981 L 992.421997 251.276001 L 996.653992 246.026978 L 1003.596008 249.411987 L 1012.229004 257.031982 L 1012.229004 261.432007 L 1011.551025 269.051025 L 1005.45697 270.06604 Z M 1102.123047 209.79895 L 1099.582031 206.411987 L 1093.488037 204.718994 L 1081.468018 200.489014 L 1077.91394 198.795044 L 1070.973022 198.116943 L 1065.89502 205.05896 L 1061.661987 202.519043 L 1058.953003 198.964966 L 1055.56604 194.731934 L 1052.859009 188.807007 L 1050.319946 186.266968 L 1047.610962 176.786987 L 1043.208984 172.554932 L 1040.668945 170.015015 L 1026.957031 174.416016 L 1026.957031 179.495972 L 1024.587036 191.68396 L 1021.031006 188.129028 L 1018.492004 189.14502 L 1017.645996 197.779053 L 1012.565979 205.56604 L 1009.182007 205.56604 L 1004.778992 203.873047 L 1002.23999 203.026978 L 998.007996 199.640991 L 994.453003 195.407959 L 991.914001 193.714966 L 991.744019 182.542969 L 994.11499 164.429932 L 995.809021 162.735962 L 997.5 162.56604 L 999.362976 166.120972 L 1001.057007 170.354004 L 1004.611023 172.046997 L 1010.536987 172.893066 L 1010.536987 169.338013 L 1006.13501 160.873047 L 1006.13501 157.317993 L 1005.289001 151.393066 L 1004.270996 146.313965 L 1001.731995 142.76001 L 999.02301 141.06604 L 998.177979 135.140991 L 992.929993 121.427979 L 991.914001 113.640991 L 994.453979 106.70105 L 996.145996 98.235962 L 1001.05603 70.640991 L 1004.270996 58.453003 L 1007.65802 52.526978 L 1009.52002 51.682007 L 1012.906006 48.125 L 1015.445984 45.584961 L 1017.984009 45.584961 L 1023.064026 45.417969 L 1027.463989 51.342041 L 1028.47998 59.129028 L 1029.32605 63.531006 L 1029.32605 68.609009 L 1028.650024 78.088989 L 1028.650024 83.168945 L 1029.495972 85.031006 L 1033.051025 84.860962 L 1033.897949 84.860962 L 1036.437988 80.629028 L 1037.11499 75.380981 L 1039.655029 71.147949 L 1044.901978 68.44104 L 1048.286987 67.593994 L 1052.52002 67.593994 L 1062 66.578003 L 1068.94104 67.426025 L 1075.035034 66.407959 L 1081.807007 64.717041 L 1088.578003 59.468994 L 1092.13501 56.928955 L 1096.366943 57.60498 L 1101.61499 57.60498 L 1107.53894 59.29895 L 1113.63501 60.14502 L 1117.02002 60.991943 L 1118.713013 61.667969 L 1126.670044 70.302979 L 1127.515991 72.842041 L 1124.975952 75.380981 L 1123.282959 80.629028 L 1128.531006 86.555054 L 1131.071045 85.708984 L 1131.917969 81.477051 L 1135.302979 79.613037 L 1143.937012 85.539063 L 1146.646973 88.078979 L 1146.646973 93.32605 L 1140.890991 115.671997 L 1138.350952 121.767944 L 1136.657959 133.787964 L 1135.812988 136.32605 L 1127.177979 136.495972 L 1124.637939 140.895996 L 1119.561035 142.589966 L 1117.02002 145.129028 L 1116.17395 151.224976 L 1116.17395 152.916016 L 1114.47998 154.609009 L 1113.805054 164.936035 L 1110.417969 170.18396 L 1107.878052 174.585938 L 1113.126953 186.437012 L 1115.666016 191.68396 L 1115.83606 195.916016 L 1114.142944 199.302979 L 1112.448975 203.704956 L 1106.35498 208.95105 L 1103.814941 209.79895 L 1102.123047 209.79895 Z M 1152.402954 74.36499 L 1154.94104 64.88501 L 1155.786987 62.175049 L 1156.63501 56.251953 L 1156.464966 47.616943 L 1154.770996 41.692993 L 1152.911011 35.598022 L 1154.600952 30.52002 L 1157.988037 27.810059 L 1171.870972 27.640015 L 1176.104004 29.333984 L 1178.642944 31.873047 L 1182.197021 33.56604 L 1184.737061 37.968994 L 1187.444946 43.892944 L 1189.139038 48.973022 L 1191 58.453003 L 1190.154053 64.546997 L 1187.614014 67.085938 L 1185.073975 67.93396 L 1179.995972 68.102051 L 1169.5 66.407959 L 1166.11499 69.118042 L 1164.421997 70.811035 L 1161.035034 72.504028 L 1155.957031 73.52002 L 1152.401978 74.36499 Z"/>
    <path id="Shape" fill="#ea4336" stroke="none" d="M 949.964355 305.781494 C 912.883179 250.344604 906 244.654785 906 224.28125 C 906 196.373291 927.938049 173.75 955 173.75 C 982.061951 173.75 1004 196.373291 1004 224.28125 C 1004 244.654785 997.116821 250.344604 960.035645 305.781494 C 957.602295 309.40625 952.397339 309.40625 949.964355 305.781494 Z M 955 245.335938 C 966.275757 245.335938 975.416565 235.90918 975.416565 224.28125 C 975.416565 212.65332 966.275757 203.226563 955 203.226563 C 943.724243 203.226563 934.583435 212.65332 934.583435 224.28125 C 934.583435 235.90918 943.724243 245.335938 955 245.335938 Z"/>
</svg>
